{"title":"Bonded By Blood 2010 DvDRip.H264.Feel-Free","uid":6043113,"size":765216807,"categoryP":"video","categoryS":"movies","magnet":"?xt=urn:btih:48753a14b3806b433a2e68e4c0475da272bb047d&amp;dn=Bonded+By+Blood+2010+DvDRip.H264.Feel-Free&amp;tr=udp%3A%2F%2Ftracker.openbittorrent.com%3A80&amp;tr=udp%3A%2F%2Fopen.demonii.com%3A1337&amp;tr=udp%3A%2F%2Ftracker.coppersurfer.tk%3A6969&amp;tr=udp%3A%2F%2Fexodus.desync.com%3A6969","seeders":0,"leechers":1,"uploader":"neon","files":7,"time":1292444547,"description":"Genre:Crime\nLanguage:English\n &lt;a href=&quot; http://www.imdb.com/title/tt1540400/&quot; rel=&quot;nofollow&quot; target=&quot;_NEW&quot;&gt; http://www.imdb.com/title/tt1540400/&lt;/a&gt;\nSource:DVDR Untouched Thx.\n\n\nFormat : MPEG-4\nFormat profile : Base Media\nCodec ID : isom\nFile size : 729 MiB\nDuration : 1h 32mn\nOverall bit rate : 1 105 Kbps\n\n\nVideo\nCodec ID : avc1\nCodec ID/Info : Advanced Video Coding\nDuration : 1h 32mn\nBit rate mode : Variable\nBit rate : 940 Kbps\nWidth : 704 pixels\nHeight : 304 pixels\nDisplay aspect ratio : 2.35:1\nFrame rate mode : Constant\nFrame rate : 23.976 fps\nOriginal frame rate : 23.000 fps\nColor space : YUV\nChroma subsampling : 4:2:0\nBit depth : 8 bits\nScan type : Progressive\nBits/(Pixel*Frame) : 0.183\nStream size : 620 MiB (85%)\nLanguage : English\n\nAudio\nID : 1\nFormat : AAC\nFormat/Info : Advanced Audio Codec\nFormat version : Version 4\nFormat profile : LC\nCodec ID : 40\nDuration : 1h 32mn\nBit rate mode : Constant\nBit rate : 159 Kbps\nChannel(s) : 2 channels\nChannel positions : Front: L R\nSampling rate : 48.0 KHz\nStream size : 105 MiB (14%)\nLanguage : English\n\n\nPlot:\nIn 1995, drug suppliers and career criminals Tony Tucker, Patrick Tate and Craig Rolfe were blasted to death by a shot gun whilst waiting in a Range Rover in Rettendon\n\n","torrent":{"xt":"urn:btih:48753a14b3806b433a2e68e4c0475da272bb047d","amp;dn":"Bonded+By+Blood+2010+DvDRip.H264.Feel-Free","amp;tr":["udp%3A%2F%2Ftracker.openbittorrent.com%3A80","udp%3A%2F%2Fopen.demonii.com%3A1337","udp%3A%2F%2Ftracker.coppersurfer.tk%3A6969","udp%3A%2F%2Fexodus.desync.com%3A6969"],"infoHash":"48753a14b3806b433a2e68e4c0475da272bb047d","infoHashBuffer":{"type":"Buffer","data":[72,117,58,20,179,128,107,67,58,46,104,228,192,71,93,162,114,187,4,125]},"announce":[],"urlList":[]}}